<svg version="1.1" viewBox="0.0 0.0 675.9527559055118 185.753280839895" fill="none" stroke="none" stroke-linecap="square" stroke-miterlimit="10" xmlns:xlink="http://www.w3.org/1999/xlink" xmlns="http://www.w3.org/2000/svg"><clipPath id="p.0"><path d="m0 0l675.95276 0l0 185.75328l-675.95276 0l0 -185.75328z" clip-rule="nonzero"/></clipPath><g clip-path="url(#p.0)"><path fill="#000000" fill-opacity="0.0" d="m0 0l675.95276 0l0 185.75328l-675.95276 0z" fill-rule="evenodd"/><path fill="#000000" fill-opacity="0.0" d="m26.244095 25.160105l623.4646 0l0 135.43306l-623.4646 0z" fill-rule="evenodd"/><path fill="#f3f3f3" d="m67.400345 54.960102q12.25 0 19.359375 6.125q7.125 6.109371 7.125 17.468746l-16.875 0q0 -4.796875 -2.53125 -7.59375q-2.515625 -2.796875 -7.15625 -2.796875q-5.359375 0 -7.875 3.359375q-2.515625 3.359375 -2.515625 9.359375l0 5.125q0 5.90625 2.515625 9.3125q2.515625 3.40625 7.71875 3.40625q5.125 0 7.75 -2.640625q2.640625 -2.640625 2.640625 -7.4375l16.328125 0q0 11.265625 -6.921875 17.265625q-6.921875 6.0 -19.5625 6.0q-14.078125 0 -21.328125 -7.1875q-7.234375 -7.203125 -7.234375 -21.28125q0 -14.078125 7.234375 -21.281246q7.25 -7.203125 21.328125 -7.203125zm56.72432 12.796871q11.125 0 17.484375 5.640625q6.359375 5.640625 6.359375 16.4375q0 10.8125 -6.359375 16.453125q-6.359375 5.625 -17.484375 5.625q-11.125 0 -17.453125 -5.59375q-6.3125 -5.59375 -6.3125 -16.484375q0 -10.875 6.3125 -16.46875q6.328125 -5.609375 17.453125 -5.609375zm0 10.796875q-7.84375 0 -7.84375 9.046875l0 4.5625q0 8.953125 7.84375 8.953125q7.921875 0 7.921875 -8.953125l0 -4.5625q0 -9.046875 -7.921875 -9.046875zm48.71933 -26.546871q1.765625 0 4.40625 0.4375q2.640625 0.4375 4.234375 1.0l0 9.359375l-3.6875 0q-2.546875 0 -3.515625 0.96875q-0.953125 0.9531212 -0.953125 3.2656212l0 1.6875l8.15625 0l0 10.796875l-8.15625 0l0 31.4375l-15.921875 0l0 -31.4375l-5.921875 0l0 -10.796875l5.921875 0l0 -1.765625q0 -8.156246 4.0 -11.546871q4.0 -3.40625 11.4375 -3.40625zm33.119965 0q1.765625 0 4.40625 0.4375q2.640625 0.4375 4.234375 1.0l0 9.359375l-3.6875 0q-2.546875 0 -3.515625 0.96875q-0.953125 0.9531212 -0.953125 3.2656212l0 1.6875l8.15625 0l0 10.796875l-8.15625 0l0 31.4375l-15.921875 0l0 -31.4375l-5.921875 0l0 -10.796875l5.921875 0l0 -1.765625q0 -8.156246 4.0 -11.546871q4.0 -3.40625 11.4375 -3.40625zm34.40059 15.749996q11.59375 0 17.718735 5.453125q6.125 5.4375 6.125 16.625l0 2.71875l-31.687485 0q0 4.5625 2.03125 6.890625q2.046875 2.3125 6.453125 2.3125q4.0 0 5.875 -1.671875q1.890625 -1.6875 1.890625 -4.484375l15.437485 0q0 7.671875 -5.84375 12.0q-5.8437347 4.3125 -17.04686 4.3125q-11.75 0 -18.234375 -5.46875q-6.484375 -5.484375 -6.484375 -16.609375q0 -10.875 6.3125 -16.46875q6.328125 -5.609375 17.453125 -5.609375zm0.640625 10.15625q-7.515625 0 -8.40625 7.125l15.53125 0q0 -3.28125 -1.890625 -5.203125q-1.875 -1.921875 -5.234375 -1.921875zm52.719315 -10.15625q11.59375 0 17.71875 5.453125q6.125 5.4375 6.125 16.625l0 2.71875l-31.6875 0q0 4.5625 2.03125 6.890625q2.046875 2.3125 6.453125 2.3125q4.0 0 5.875 -1.671875q1.890625 -1.6875 1.890625 -4.484375l15.4375 0q0 7.671875 -5.84375 12.0q-5.84375 4.3125 -17.046875 4.3125q-11.75 0 -18.234375 -5.46875q-6.484375 -5.484375 -6.484375 -16.609375q0 -10.875 6.3125 -16.46875q6.328125 -5.609375 17.453125 -5.609375zm0.640625 10.15625q-7.515625 0 -8.40625 7.125l15.53125 0q0 -3.28125 -1.890625 -5.203125q-1.875 -1.921875 -5.234375 -1.921875zm55.12558 -22.953121q10.546875 0 17.34375 4.28125q6.8125 4.28125 6.96875 12.671871l0 0.96875l-16.5625 0l0 -0.328125q0 -2.390625 -1.765625 -3.984375q-1.75 -1.609375 -5.34375 -1.609375q-3.53125 0 -5.40625 1.046875q-1.875 1.03125 -1.875 2.546875q0 2.171875 2.546875 3.21875q2.5625 1.03125 8.25 2.140625q6.640625 1.359375 10.921875 2.84375q4.28125 1.484375 7.46875 4.84375q3.203125 3.359375 3.28125 9.125q0 9.75 -6.59375 14.46875q-6.59375 4.71875 -17.640625 4.71875q-12.875 0 -20.046875 -4.3125q-7.15625 -4.328125 -7.15625 -15.28125l16.71875 0q0 4.15625 2.15625 5.5625q2.171875 1.390625 6.734375 1.390625q3.359375 0 5.546875 -0.71875q2.203125 -0.71875 2.203125 -2.953125q0 -2.0 -2.4375 -3.0q-2.4375 -1.0 -7.953125 -2.125q-6.71875 -1.4375 -11.125 -3.0q-4.40625 -1.5625 -7.6875 -5.15625q-3.28125 -3.59375 -3.28125 -9.765625q0 -9.031246 7.0 -13.312496q7.0 -4.28125 17.734375 -4.28125zm55.3537 12.796871q10.40625 0 16.84375 4.453125q6.4375 4.4375 6.4375 13.546875l-15.4375 0q0 -7.203125 -7.84375 -7.203125q-7.84375 0 -7.84375 9.046875l0 4.5625q0 8.953125 8.15625 8.953125q8.171875 0 8.171875 -7.359375l14.796875 0q0 9.203125 -6.4375 13.6875q-6.4375 4.46875 -16.84375 4.46875q-11.125 0 -17.453125 -5.59375q-6.3125 -5.59375 -6.3125 -16.484375q0 -10.875 6.3125 -16.46875q6.328125 -5.609375 17.453125 -5.609375zm57.203705 -0.078125q1.828125 0 3.265625 0.4375q1.453125 0.4375 1.453125 0.53125l0 13.359375l-5.125 0q-4.953125 0 -7.15625 2.5625q-2.203125 2.546875 -2.203125 7.59375l0 18.796875l-15.921875 0l0 -42.234375l13.046875 0l1.03125 6.390625q1.4375 -3.671875 4.5625 -5.546875q3.125 -1.890625 7.046875 -1.890625zm10.3949585 -3.9218712l0 -10.796875l15.921875 0l0 10.796875l-15.921875 0zm0 47.20312l0 -42.234375l15.921875 0l0 42.234375l-15.921875 0zm53.921204 -43.203125q8.5625 0 13.203125 5.609375q4.640625 5.59375 4.640625 16.546875q0 10.890625 -4.640625 16.453125q-4.640625 5.546875 -13.203125 5.546875q-7.359375 0 -11.84375 -4.796875l0 19.609375l-15.921875 0l0 -58.0l12.96875 0l1.359375 6.0q4.640625 -6.96875 13.4375 -6.96875zm-4.953125 11.765625q-3.53125 0 -5.296875 2.484375q-1.75 2.46875 -1.75 6.46875l0 2.640625q0 4.0 1.75 6.53125q1.765625 2.515625 5.296875 2.515625q6.875 0 6.875 -8.25l0 -4.234375q0 -8.15625 -6.875 -8.15625zm58.62555 -10.796875l0 10.796875l-8.953125 0l0 16.078125q0 2.875 0.953125 4.203125q0.96875 1.3125 3.53125 1.3125l4.46875 0l0 9.359375q-1.90625 0.640625 -4.953125 1.03125q-3.046875 0.40625 -5.28125 0.40625q-7.03125 0 -10.84375 -2.546875q-3.796875 -2.5625 -3.796875 -8.71875l0 -21.125l-5.921875 0l0 -10.796875l6.5625 0l3.4375 -12.812496l11.84375 0l0 12.812496l8.953125 0zm27.441895 -0.96875q8.484375 0 14.359375 3.328125q5.890625 3.3125 5.890625 10.28125l-14.8125 0q0 -2.328125 -2.078125 -3.28125q-1.4375 -0.8125 -3.59375 -0.8125q-5.765625 0 -5.765625 2.734375q0 1.515625 2.0 2.15625q2.0 0.640625 6.5625 1.359375q5.609375 0.796875 9.359375 1.875q3.765625 1.078125 6.5625 3.84375q2.796875 2.765625 2.796875 7.71875q0 8.078125 -6.046875 11.515625q-6.03125 3.4375 -15.796875 3.4375q-5.59375 0 -10.5625 -1.546875q-4.953125 -1.5625 -8.078125 -4.84375q-3.109375 -3.28125 -3.109375 -8.328125l14.796875 0l0 0.328125q0.078125 2.71875 2.28125 3.796875q2.203125 1.078125 4.671875 1.078125q6.640625 0 6.640625 -3.125q0 -1.59375 -2.078125 -2.3125q-2.078125 -0.71875 -6.796875 -1.515625q-5.671875 -0.96875 -9.3125 -2.078125q-3.640625 -1.125 -6.359375 -3.796875q-2.71875 -2.6875 -2.71875 -7.484375q0 -7.765625 5.875 -11.046875q5.875 -3.28125 15.3125 -3.28125z" fill-rule="nonzero"/></g></svg>